HIERARCHY
ROOT Hips
{
  OFFSET -0.589095 22.1471 2.58842
  CHANNELS 6 Xposition Yposition Zposition Zrotation Xrotation Yrotation
  JOINT BN_Bip01_Pelvis
  {
    OFFSET -3.49357 -5.29363 -0.000213444
    CHANNELS 6 Xposition Yposition Zposition Zrotation Xrotation Yrotation
    JOINT BN_leg_R_01
    {
      OFFSET 10.8127 -7.82778 -6.29737
      CHANNELS 6 Xposition Yposition Zposition Zrotation Xrotation Yrotation
      JOINT BN_leg_R_02
      {
        OFFSET 8.91071 0 0
        CHANNELS 6 Xposition Yposition Zposition Zrotation Xrotation Yrotation
        JOINT BN_leg_R_03
        {
          OFFSET 15.6024 0 0
          CHANNELS 6 Xposition Yposition Zposition Zrotation Xrotation Yrotation
          JOINT BN_leg_R_04
          {
            OFFSET 9.68174 0 0
            CHANNELS 6 Xposition Yposition Zposition Zrotation Xrotation Yrotation
            JOINT BN_leg_R_05
            {
              OFFSET 10.6982 0 0
              CHANNELS 6 Xposition Yposition Zposition Zrotation Xrotation Yrotation
              JOINT BN_Leg_R_05Nub
              {
                OFFSET 11.1504 0 0
                CHANNELS 6 Xposition Yposition Zposition Zrotation Xrotation Yrotation
                End Site
                {
                  OFFSET 0 0 0
                }
              }
            }
          }
        }
      }
    }
    JOINT BN_leg_R_06
    {
      OFFSET 6.51511 -7.99898 -4.29089
      CHANNELS 6 Xposition Yposition Zposition Zrotation Xrotation Yrotation
      JOINT BN_Leg_R_07
      {
        OFFSET 9.03709 0 0
        CHANNELS 6 Xposition Yposition Zposition Zrotation Xrotation Yrotation
        JOINT BN_Leg_R_08
        {
          OFFSET 18.7638 0 0
          CHANNELS 6 Xposition Yposition Zposition Zrotation Xrotation Yrotation
          JOINT BN_Leg_R_09
          {
            OFFSET 10.9666 0 0
            CHANNELS 6 Xposition Yposition Zposition Zrotation Xrotation Yrotation
            JOINT BN_Leg_R_10
            {
              OFFSET 10.8726 0 0
              CHANNELS 6 Xposition Yposition Zposition Zrotation Xrotation Yrotation
              JOINT BN_Leg_R_10Nub
              {
                OFFSET 11.2648 0 0
                CHANNELS 6 Xposition Yposition Zposition Zrotation Xrotation Yrotation
                End Site
                {
                  OFFSET 0 0 0
                }
              }
            }
          }
        }
      }
    }
    JOINT BN_Leg_R_11
    {
      OFFSET 2.71429 -8.18693 -0.209972
      CHANNELS 6 Xposition Yposition Zposition Zrotation Xrotation Yrotation
      JOINT BN_Leg_R_12
      {
        OFFSET 9.8713 0 0
        CHANNELS 6 Xposition Yposition Zposition Zrotation Xrotation Yrotation
        JOINT BN_Leg_R_13
        {
          OFFSET 21.8657 0 0
          CHANNELS 6 Xposition Yposition Zposition Zrotation Xrotation Yrotation
          JOINT BN_Leg_R_14
          {
            OFFSET 11.0011 0 0
            CHANNELS 6 Xposition Yposition Zposition Zrotation Xrotation Yrotation
            JOINT BN_Leg_R_15
            {
              OFFSET 12.8798 0 0
              CHANNELS 6 Xposition Yposition Zposition Zrotation Xrotation Yrotation
              JOINT BN_Leg_R_15Nub
              {
                OFFSET 13.0642 0 0
                CHANNELS 6 Xposition Yposition Zposition Zrotation Xrotation Yrotation
                End Site
                {
                  OFFSET 0 0 0
                }
              }
            }
          }
        }
      }
    }
    JOINT BN_Leg_L_11
    {
      OFFSET 2.7143 8.18692 -0.209982
      CHANNELS 6 Xposition Yposition Zposition Zrotation Xrotation Yrotation
      JOINT BN_Leg_L_12
      {
        OFFSET 9.87129 0 0
        CHANNELS 6 Xposition Yposition Zposition Zrotation Xrotation Yrotation
        JOINT BN_Leg_L_13
        {
          OFFSET 21.8657 0 0
          CHANNELS 6 Xposition Yposition Zposition Zrotation Xrotation Yrotation
          JOINT BN_Leg_L_14
          {
            OFFSET 11.0011 0 0
            CHANNELS 6 Xposition Yposition Zposition Zrotation Xrotation Yrotation
            JOINT BN_Leg_L_15
            {
              OFFSET 12.8798 0 0
              CHANNELS 6 Xposition Yposition Zposition Zrotation Xrotation Yrotation
              JOINT BN_Leg_L_15Nub
              {
                OFFSET 13.0642 0 0
                CHANNELS 6 Xposition Yposition Zposition Zrotation Xrotation Yrotation
                End Site
                {
                  OFFSET 0 0 0
                }
              }
            }
          }
        }
      }
    }
    JOINT BN_leg_L_06
    {
      OFFSET 6.51511 7.99896 -4.29091
      CHANNELS 6 Xposition Yposition Zposition Zrotation Xrotation Yrotation
      JOINT BN_Leg_L_07
      {
        OFFSET 9.03709 0 0
        CHANNELS 6 Xposition Yposition Zposition Zrotation Xrotation Yrotation
        JOINT BN_Leg_L_08
        {
          OFFSET 18.7638 0 0
          CHANNELS 6 Xposition Yposition Zposition Zrotation Xrotation Yrotation
          JOINT BN_Leg_L_09
          {
            OFFSET 10.9666 0 0
            CHANNELS 6 Xposition Yposition Zposition Zrotation Xrotation Yrotation
            JOINT BN_Leg_L_10
            {
              OFFSET 10.8726 0 0
              CHANNELS 6 Xposition Yposition Zposition Zrotation Xrotation Yrotation
              JOINT BN_Leg_L_10Nub
              {
                OFFSET 11.2649 0 0
                CHANNELS 6 Xposition Yposition Zposition Zrotation Xrotation Yrotation
                End Site
                {
                  OFFSET 0 0 0
                }
              }
            }
          }
        }
      }
    }
    JOINT BN_leg_L_01
    {
      OFFSET 10.8127 7.82776 -6.29737
      CHANNELS 6 Xposition Yposition Zposition Zrotation Xrotation Yrotation
      JOINT BN_leg_L_02
      {
        OFFSET 8.91072 0 0
        CHANNELS 6 Xposition Yposition Zposition Zrotation Xrotation Yrotation
        JOINT BN_leg_L_03
        {
          OFFSET 15.6024 0 0
          CHANNELS 6 Xposition Yposition Zposition Zrotation Xrotation Yrotation
          JOINT BN_leg_L_04
          {
            OFFSET 9.68174 0 0
            CHANNELS 6 Xposition Yposition Zposition Zrotation Xrotation Yrotation
            JOINT BN_leg_L_05
            {
              OFFSET 10.6982 0 0
              CHANNELS 6 Xposition Yposition Zposition Zrotation Xrotation Yrotation
              JOINT BN_Leg_L_05Nub
              {
                OFFSET 11.1504 0 0
                CHANNELS 6 Xposition Yposition Zposition Zrotation Xrotation Yrotation
                End Site
                {
                  OFFSET 0 0 0
                }
              }
            }
          }
        }
      }
    }
    JOINT BN_Eye_L_01
    {
      OFFSET 28.5502 2.54627 -3.93739
      CHANNELS 6 Xposition Yposition Zposition Zrotation Xrotation Yrotation
      JOINT BN_Eye_L_02
      {
        OFFSET 2.30267 0 0
        CHANNELS 6 Xposition Yposition Zposition Zrotation Xrotation Yrotation
        JOINT BN_Eye_L_03
        {
          OFFSET 5.31894 0 0
          CHANNELS 6 Xposition Yposition Zposition Zrotation Xrotation Yrotation
          JOINT BN_Eye_L_04
          {
            OFFSET 9.71244 0 0
            CHANNELS 6 Xposition Yposition Zposition Zrotation Xrotation Yrotation
            End Site
            {
              OFFSET 0 0 0
            }
          }
        }
      }
    }
    JOINT BN_Eye_R_01
    {
      OFFSET 28.5502 -2.54612 -3.93738
      CHANNELS 6 Xposition Yposition Zposition Zrotation Xrotation Yrotation
      JOINT BN_Eye_R_02
      {
        OFFSET 2.30267 0 0
        CHANNELS 6 Xposition Yposition Zposition Zrotation Xrotation Yrotation
        JOINT BN_Eye_R_03
        {
          OFFSET 5.31896 0 0
          CHANNELS 6 Xposition Yposition Zposition Zrotation Xrotation Yrotation
          JOINT BN_Eye_R_04
          {
            OFFSET 9.71244 0 0
            CHANNELS 6 Xposition Yposition Zposition Zrotation Xrotation Yrotation
            End Site
            {
              OFFSET 0 0 0
            }
          }
        }
      }
    }
    JOINT BN_Arm_L_01
    {
      OFFSET 15.9737 8.03546 -8.36195
      CHANNELS 6 Xposition Yposition Zposition Zrotation Xrotation Yrotation
      JOINT BN_Arm_L_02
      {
        OFFSET 16.8869 0 0
        CHANNELS 6 Xposition Yposition Zposition Zrotation Xrotation Yrotation
        JOINT BN_Arm_L_03
        {
          OFFSET 8.42975 0 0
          CHANNELS 6 Xposition Yposition Zposition Zrotation Xrotation Yrotation
          JOINT BN_Arm_L_04
          {
            OFFSET 7.53864 -0.0312023 2.09083
            CHANNELS 6 Xposition Yposition Zposition Zrotation Xrotation Yrotation
            End Site
            {
              OFFSET 0 0 0
            }
          }
        }
      }
    }
    JOINT BN_Arm_R_01
    {
      OFFSET 14.7806 -6.70232 -9.44366
      CHANNELS 6 Xposition Yposition Zposition Zrotation Xrotation Yrotation
      JOINT BN_Arm_R_02
      {
        OFFSET 19.9827 0 0
        CHANNELS 6 Xposition Yposition Zposition Zrotation Xrotation Yrotation
        JOINT BN_Arm_R_03
        {
          OFFSET 17.4553 0 0
          CHANNELS 6 Xposition Yposition Zposition Zrotation Xrotation Yrotation
          JOINT BN_Arm_R_04
          {
            OFFSET 13.3834 -2.22657 7.3982
            CHANNELS 6 Xposition Yposition Zposition Zrotation Xrotation Yrotation
            End Site
            {
              OFFSET 0 0 0
            }
          }
        }
      }
    }
  }
}
MOTION
Frames:	4
Frame Time:	0.0333333
-56.0876 30.3564 -0.219456 41.6634 7.73099 8.15836 -3.49325 -8.0258 1.77636e-015 -163.39 -84.4569 153.045 10.8127 -7.82778 -6.29736 -163.097 6.45949 24.1003 8.91072 -1.90735e-006 9.53674e-007 76.5992 0.401138 1.26784 15.6024 -4.76837e-007 9.53674e-007 -77.5013 -1.29386 5.30563 9.68174 -3.55272e-015 9.53674e-007 -13.1687 0.820923 -8.74689 10.6982 3.8147e-006 0 -25.6135 4.11854 1.11963 11.1504 1.14441e-005 1.90735e-006 -4.23328e-007 1.14266e-005 6.61835e-007 6.5151 -7.99897 -4.29089 -165.117 23.6422 14.1437 9.03709 -2.86102e-006 -1.90735e-006 89.0819 -2.13119 -2.9434 18.7638 -9.53675e-007 1.42109e-014 -68.1513 3.08061 10.0423 10.9665 -3.8147e-006 3.8147e-006 -13.2374 -0.643244 -0.433739 10.8726 3.8147e-006 2.98428e-013 -11.7724 -0.0151625 -1.52391 11.2648 3.8147e-006 1.90735e-006 -1.98918e-006 -1.00583e-008 -4.01188e-008 2.71429 -8.18693 -0.209967 -136.52 57.6557 -22.0616 9.87129 3.8147e-006 3.8147e-006 104.296 1.69365 -0.57521 21.8657 9.53674e-007 -3.8147e-006 -83.4136 -1.57179 -7.29173 11.0011 -7.10542e-014 3.8147e-006 -15.2248 -0.311305 -0.733149 12.8798 2.84217e-014 5.72205e-006 -23.676 -0.0359882 0.0920009 13.0642 7.62939e-006 -9.53674e-006 3.81888e-007 9.83709e-006 6.041e-007 2.7143 8.18692 -0.209976 166.657 -32.3069 14.4439 9.87129 9.53674e-007 1.90735e-006 -134.756 -1.23453 -0.171327 21.8657 -9.53676e-007 -5.72205e-006 110.333 -0.672816 -7.48984 11.0011 2.13163e-013 -4.583e-013 8.71078 0.277756 -0.543752 12.8798 0 1.42109e-014 15.4729 0.0486123 0.139516 13.0642 4.40536e-013 -7.6294e-006 1.0408e-006 -9.16623e-007 5.05569e-007 6.51512 7.99896 -4.2909 164.233 4.85476 40.5045 9.03709 2.86102e-006 -1.90735e-006 -119.435 2.67615 -2.43782 18.7638 2.86102e-006 1.90735e-006 78.6738 5.40486 -9.6569 10.9666 0 1.49214e-013 30.8156 0.47022 -1.62419 10.8726 3.81469e-006 1.90735e-006 29.0521 0.0155866 -2.84027 11.2648 0 -5.68434e-014 8.65319e-008 1.01847e-006 2.77316e-008 10.8127 7.82776 -6.29737 168.862 11.4473 38.9538 8.91072 1.77636e-015 7.10543e-015 -80.8751 -0.814491 1.73215 15.6024 -4.76837e-006 -9.53674e-007 63.5156 8.02004 -1.76435 9.68174 -3.8147e-006 -4.76837e-006 30.0771 0.611522 -13.2145 10.6982 -2.84217e-014 2.86102e-006 46.3539 -4.11648 -1.38514 11.1504 1.77636e-015 3.55271e-014 -9.99837e-006 8.7796e-006 1.00173e-005 28.5502 2.54627 -3.93738 89.995 -40.8535 50.3814 2.30267 -1.90735e-006 -7.10543e-015 -31.5806 -0.0731786 -16.1705 5.31895 1.90735e-006 1.19209e-007 0.0630856 2.64357 -4.2491 9.71242 5.68434e-014 -2.38419e-006 1.86633 10.4645 24.6938 28.5502 -2.54612 -3.93737 89.9968 -39.1541 129.609 2.30267 -1.90735e-006 4.76837e-007 -26.6132 -1.39318 -8.58464 5.31895 0 3.55271e-015 13.7717 2.02988 -0.75248 9.71244 9.53675e-007 -5.36442e-007 21.0027 0.960663 -1.09219 15.9737 8.03546 -8.36195 56.5593 26.2117 3.73449 16.8869 -2.38419e-006 -1.90735e-006 -51.5045 4.95735 -14.8467 8.42975 -7.10543e-015 -9.53675e-007 -25.5911 -4.35943e-006 1.09659e-005 7.53865 -0.031208 2.09083 -7.4343 -4.90551 21.8369 14.7806 -6.70232 -9.44365 -34.3672 -51.6581 23.5073 19.9827 1.90735e-006 -3.8147e-006 54.6098 -13.2111 -20.6869 17.4553 3.8147e-006 9.53674e-007 38.5531 -18.4262 10.7101 13.3835 -2.22654 7.39821 8.73985 1.9222 -22.3285 
-55.6723 29.9642 -0.219456 43.6209 6.86296 6.54672 -3.49325 -8.0258 -1.77636e-015 -163.39 -84.4569 153.045 10.8127 -7.82778 -6.29736 -163.909 5.70689 23.846 8.91072 -1.90735e-006 9.53674e-007 77.5246 0.421563 1.2612 15.6024 -4.76837e-007 9.53674e-007 -77.6755 -1.46718 4.73901 9.68174 0 9.53674e-007 -13.7841 0.769871 -8.92377 10.6982 3.8147e-006 -1.42109e-014 -26.3967 4.11589 1.03394 11.1504 1.14441e-005 1.90735e-006 -4.23328e-007 1.14266e-005 6.61835e-007 6.5151 -7.99897 -4.29089 -164.819 23.6508 14.3694 9.03709 -2.86102e-006 -1.90735e-006 89.7271 -2.14273 -2.94619 18.7638 -9.53675e-007 2.13163e-014 -68.3714 3.10527 9.71357 10.9665 -3.8147e-006 3.8147e-006 -13.8927 -0.639568 -0.476037 10.8726 3.8147e-006 3.16191e-013 -12.4091 -0.0149411 -1.57762 11.2648 3.8147e-006 1.90735e-006 -1.98918e-006 -1.00583e-008 -4.01188e-008 2.71429 -8.18693 -0.209967 -132.914 56.6072 -22.823 9.87129 3.8147e-006 3.8147e-006 103.768 1.69467 -0.576737 21.8657 9.53674e-007 -3.8147e-006 -83.0041 -1.99651 -8.34506 11.0011 -5.68434e-014 3.8147e-006 -15.5283 -0.315823 -0.73837 12.8798 -2.84217e-014 5.72205e-006 -24.0514 -0.0351872 0.0886194 13.0642 7.62939e-006 -9.53674e-006 3.81888e-007 9.83709e-006 6.041e-007 2.7143 8.18692 -0.209976 162.802 -37.2779 11.2883 9.87129 9.53674e-007 1.90735e-006 -133.394 -1.25768 -0.197018 21.8657 -9.53676e-007 -5.72205e-006 113.316 -1.06337 -7.35117 11.0011 2.41585e-013 -2.23821e-013 6.56546 0.267053 -0.474202 12.8798 0 3.55271e-015 12.6363 0.0439512 0.152023 13.0642 4.68958e-013 -7.6294e-006 1.0408e-006 -9.16623e-007 5.05569e-007 6.51512 7.99896 -4.2909 164.21 -0.596385 35.846 9.03709 2.86102e-006 -1.90735e-006 -120.161 2.6872 -2.4143 18.7638 2.86102e-006 1.90735e-006 80.3625 4.5591 -8.22422 10.9666 0 1.42109e-013 31.0045 0.470539 -1.64032 10.8726 3.81469e-006 1.90735e-006 29.2366 0.015139 -2.8522 11.2648 0 -7.81597e-014 8.65319e-008 1.01847e-006 2.77315e-008 10.8127 7.82776 -6.29737 168.682 8.38587 34.942 8.91072 -1.77636e-015 7.10543e-015 -79.086 -0.728857 1.70676 15.6024 -4.76837e-006 -9.53675e-007 63.1349 6.80217 0.182393 9.68174 -3.8147e-006 -4.76837e-006 31.2646 0.714095 -13.4994 10.6982 -1.42109e-014 2.86102e-006 47.7767 -4.11681 -1.55562 11.1504 0 2.13163e-014 -9.99837e-006 8.7796e-006 1.00173e-005 28.5502 2.54627 -3.93738 89.9951 -40.8534 50.3814 2.30267 -1.90735e-006 -3.55271e-015 -31.9822 -0.00789441 -16.1609 5.31895 1.90735e-006 1.19209e-007 -0.0650762 2.60694 -4.67672 9.71242 4.26326e-014 -2.38419e-006 2.05631 10.3897 23.9797 28.5502 -2.54612 -3.93737 89.9619 -39.168 129.545 2.30267 -1.90735e-006 4.76837e-007 -27.2457 -1.39541 -8.74499 5.31895 1.42109e-014 -3.55271e-015 13.6594 1.98806 -0.988452 9.71244 9.53675e-007 -5.36442e-007 21.0564 0.927566 -1.51702 15.9737 8.03546 -8.36195 56.5899 26.2136 3.66948 16.8869 -2.38419e-006 -1.90735e-006 -51.416 4.94517 -15.4364 8.42975 0 -9.53675e-007 -24.8101 0.0034654 -0.504132 7.53865 -0.031208 2.09083 -7.44871 -4.87721 21.6559 14.7806 -6.70232 -9.44365 -34.4644 -51.6573 23.461 19.9827 1.90735e-006 -3.8147e-006 53.9287 -12.9041 -23.201 17.4553 3.8147e-006 9.53674e-007 39.331 -18.4828 9.58209 13.3835 -2.22654 7.39821 8.74575 1.91528 -24.9616 
-55.2818 29.5267 -0.219456 45.4351 6.45983 5.22762 -3.49325 -8.0258 0 -163.39 -84.4569 153.045 10.8127 -7.82778 -6.29736 -164.235 5.69087 23.4425 8.91072 -1.90735e-006 9.53674e-007 78.4244 0.441319 1.25443 15.6024 -4.76837e-007 9.53674e-007 -78.0504 -1.642 4.16784 9.68174 0 9.53674e-007 -14.3944 0.719119 -9.09947 10.6982 3.8147e-006 -1.77636e-014 -27.166 4.11736 0.951042 11.1504 1.14441e-005 1.90735e-006 -4.23328e-007 1.14266e-005 6.61835e-007 6.5151 -7.99897 -4.29089 -163.931 24.0193 14.3171 9.03709 -2.86102e-006 -1.90735e-006 89.8881 -2.14935 -2.94561 18.7638 -9.53675e-007 0 -67.7617 3.16498 9.37902 10.9665 -3.8147e-006 3.8147e-006 -14.7813 -0.632073 -0.537562 10.8726 3.8147e-006 3.12639e-013 -13.2782 -0.0154596 -1.65392 11.2648 3.8147e-006 1.90735e-006 -1.98918e-006 -1.00583e-008 -4.01188e-008 2.71429 -8.18693 -0.209967 -129.172 55.5677 -23.9096 9.87129 3.8147e-006 3.8147e-006 102.848 1.69687 -0.579474 21.8657 9.53674e-007 -3.8147e-006 -81.173 -2.56136 -9.19717 11.0011 4.26325e-014 3.8147e-006 -16.5786 -0.319539 -0.767854 12.8798 -4.26325e-014 5.72205e-006 -25.3589 -0.0327273 0.0783558 13.0642 7.62939e-006 -9.53674e-006 3.81888e-007 9.83709e-006 6.041e-007 2.7143 8.18692 -0.209976 159.169 -40.7916 8.41506 9.87129 9.53674e-007 1.90735e-006 -131.761 -1.28348 -0.230628 21.8657 -9.53676e-007 -5.72205e-006 112.357 -0.848728 -7.84171 11.0011 2.27374e-013 -2.30926e-013 7.37566 0.272855 -0.502004 12.8798 -1.42109e-014 -1.06581e-014 13.705 0.0459062 0.147598 13.0642 4.68958e-013 -7.6294e-006 1.0408e-006 -9.16623e-007 5.05569e-007 6.51512 7.99896 -4.2909 169.562 -6.90944 29.6783 9.03709 2.86102e-006 -1.90735e-006 -118.838 2.66791 -2.45857 18.7638 2.86102e-006 1.90735e-006 72.4692 3.47163 -5.29716 10.9666 -7.10542e-015 1.10134e-013 34.3691 0.429019 -1.85989 10.8726 3.81469e-006 1.90735e-006 32.5765 0.0142832 -3.06381 11.2648 7.10542e-015 -1.06581e-013 8.65319e-008 1.01847e-006 2.77316e-008 10.8127 7.82776 -6.29737 168.633 6.05423 31.5668 8.91072 1.77636e-015 0 -76.925 -0.626601 1.67186 15.6024 -4.76837e-006 -9.53675e-007 61.96 5.8909 1.76643 9.68174 -3.8147e-006 -4.76837e-006 32.744 0.835005 -13.8545 10.6982 -3.55272e-014 2.86102e-006 49.5358 -4.11547 -1.77666 11.1504 -1.77636e-015 2.13163e-014 -9.99837e-006 8.7796e-006 1.00173e-005 28.5502 2.54627 -3.93738 89.995 -40.8534 50.3814 2.30267 -1.90735e-006 -1.77636e-015 -32.295 0.0481504 -16.1239 5.31895 1.90735e-006 1.19209e-007 -0.168036 2.57313 -5.0238 9.71242 4.26326e-014 -2.38419e-006 2.19694 10.3264 23.4285 28.5502 -2.54612 -3.93737 89.8476 -39.2108 129.356 2.30267 -1.90735e-006 4.76837e-007 -27.7522 -1.39748 -8.88134 5.31895 1.42109e-014 5.32907e-015 13.563 1.95554 -1.178 9.71244 9.53675e-007 -5.36442e-007 21.1027 0.896202 -1.8559 15.9737 8.03546 -8.36195 56.6152 26.214 3.61003 16.8869 -2.38419e-006 -1.90735e-006 -51.3062 4.92863 -16.0975 8.42975 -7.10543e-015 -9.53675e-007 -24.0852 0.00424137 -1.08167 7.53865 -0.031208 2.09083 -7.46746 -4.86092 21.1338 14.7806 -6.70232 -9.44365 -34.7471 -51.6509 23.3225 19.9827 1.90735e-006 -3.8147e-006 53.1134 -12.4492 -25.4527 17.4553 3.8147e-006 9.53674e-007 40.1351 -18.5285 8.36502 13.3835 -2.22654 7.39821 8.75233 1.90427 -27.5453 
-54.9242 29.0607 -0.219456 47.0079 6.48958 4.20806 -3.49325 -8.0258 1.77636e-015 -163.39 -84.4569 153.045 10.8127 -7.82778 -6.29736 -164.103 6.32808 23.0067 8.91072 -1.90735e-006 9.53674e-007 79.3435 0.461384 1.24718 15.6024 -4.76837e-007 9.53674e-007 -78.7912 -1.80852 3.58498 9.68174 0 9.53674e-007 -14.8921 0.679429 -9.23974 10.6982 3.8147e-006 1.77636e-014 -27.7947 4.1177 0.878656 11.1504 1.14441e-005 1.90735e-006 -4.23328e-007 1.14266e-005 6.61835e-007 6.5151 -7.99897 -4.29089 -162.577 24.652 14.0557 9.03709 -2.86102e-006 -1.90735e-006 89.6826 -2.1441 -2.94456 18.7638 -9.53675e-007 1.06581e-014 -66.4806 3.25753 9.08211 10.9665 -3.8147e-006 3.8147e-006 -15.8439 -0.621431 -0.60906 10.8726 3.8147e-006 3.37508e-013 -14.3145 -0.0142028 -1.7395 11.2648 3.8147e-006 1.90735e-006 -1.98918e-006 -1.00583e-008 -4.01188e-008 2.71429 -8.18693 -0.209967 -125.484 54.5962 -25.2414 9.87129 3.8147e-006 3.8147e-006 101.608 1.70038 -0.584622 21.8657 9.53674e-007 -3.8147e-006 -78.286 -3.215 -9.79217 11.0011 5.68434e-014 3.8147e-006 -18.1237 -0.327645 -0.810117 12.8798 -2.84217e-014 5.72205e-006 -27.2508 -0.0290913 0.0651851 13.0642 7.62939e-006 -9.53674e-006 3.81888e-007 9.83709e-006 6.041e-007 2.7143 8.18692 -0.209976 156.228 -42.9717 6.08553 9.87129 9.53674e-007 1.90735e-006 -130.07 -1.31327 -0.260428 21.8657 -9.53676e-007 -5.72205e-006 108.581 -0.145187 -8.67451 11.0011 4.40536e-013 -4.61853e-013 10.2831 0.287408 -0.591185 12.8798 -1.42109e-014 1.06581e-014 17.4694 0.0501332 0.12722 13.0642 4.68958e-013 -7.6294e-006 1.0408e-006 -9.16623e-007 5.05569e-007 6.51512 7.99896 -4.2909 177.237 -13.1348 22.7215 9.03709 2.86102e-006 -1.90735e-006 -114.388 2.59693 -2.58967 18.7638 2.86102e-006 1.90735e-006 56.7702 1.26121 -1.23409 10.9666 -7.10542e-015 2.16716e-013 39.4682 0.363036 -2.18867 10.8726 3.81469e-006 1.90735e-006 37.648 0.0170555 -3.35375 11.2649 -7.10542e-015 -1.06581e-013 8.65319e-008 1.01847e-006 2.77316e-008 10.8127 7.82776 -6.29737 168.683 4.4596 28.9087 8.91072 -3.55271e-015 -7.10543e-015 -74.5433 -0.517885 1.62756 15.6024 -4.76837e-006 -9.53675e-007 60.0149 5.24177 3.08063 9.68174 -3.8147e-006 -4.76837e-006 34.5683 0.987421 -14.2857 10.6982 -1.59872e-014 2.86102e-006 51.7027 -4.1132 -2.03906 11.1504 0 2.13163e-014 -9.99834e-006 8.7796e-006 1.00173e-005 28.5502 2.54627 -3.93738 89.995 -40.8534 50.3814 2.30267 -1.90735e-006 -5.32907e-015 -32.5344 0.0927974 -16.0733 5.31895 1.90735e-006 1.19209e-007 -0.246409 2.54278 -5.30293 9.71242 5.68434e-014 -2.38419e-006 2.30869 10.2729 22.9998 28.5502 -2.54612 -3.93737 89.6664 -39.2815 129.047 2.30267 -1.90735e-006 4.76837e-007 -28.1497 -1.40034 -8.99484 5.31895 1.42109e-014 -5.32907e-015 13.4816 1.93245 -1.32026 9.71244 9.53675e-007 -5.36442e-007 21.1474 0.870416 -2.12284 15.9737 8.03546 -8.36195 56.6357 26.2142 3.55271 16.8869 -2.38419e-006 -1.90735e-006 -51.1749 4.91341 -16.8063 8.42975 -1.42109e-014 -9.53675e-007 -23.4321 0.00799468 -1.70918 7.53865 -0.031208 2.09083 -7.48692 -4.85103 20.3213 14.7806 -6.70232 -9.44365 -35.2007 -51.6356 23.0913 19.9827 1.90735e-006 -3.8147e-006 52.2115 -11.8774 -27.4174 17.4553 3.8147e-006 9.53674e-007 40.9209 -18.5603 7.09821 13.3835 -2.22654 7.39821 8.75729 1.88868 -29.9746 
